#N canvas 297 225 782 369 10;
#X obj 19 43 oscparse;
#X obj 19 -3 bng 15 250 50 0 empty empty empty 17 7 0 10 -262144 -1
-1;
#X obj 19 66 list trim;
#X obj 19 110 print p1;
#X obj 19 87 route param1 param2, f 20;
#X obj 77 111 print p2;
#X obj 21 369 netsend -u -b;
#X obj 21 299 loadbang;
#X text 17 -28 receives from plugin;
#X text 20 186 sends to plugin;
#X obj 22 240 oscformat -f f param1;
#X obj 32 347 r \$0-osCC;
#X obj 22 263 s \$0-osCC;
#X obj 172 263 s \$0-osCC;
#X floatatom 22 215 5 0 0 0 - - -;
#X floatatom 172 215 5 0 0 0 - - -;
#X obj 172 240 oscformat -f f param2;
#X msg 21 323 connect localhost 14001;
#X text 374 196 for some reason this does not always work \, there
is a loop \, the external libraries osc/iemnet/mrpeach would work best
for this task \, possibly. I would love to compite Camomile with these
\, and many others including cyclone \, faustgen \, gem \, ofelia \,
but currently it does not compile with the latest to date XCode 12
\, and says that XCode 1.5 is no longer supported;
#X msg 114 348 disconnect;
#X obj 192 40 bng 15 250 50 0 empty empty empty 17 7 0 10 -262144 -1
-1;
#X obj 19 20 netreceive -u -b 14001;
#X connect 0 0 2 0;
#X connect 1 0 21 0;
#X connect 2 0 4 0;
#X connect 4 0 3 0;
#X connect 4 1 5 0;
#X connect 7 0 17 0;
#X connect 10 0 12 0;
#X connect 11 0 6 0;
#X connect 14 0 10 0;
#X connect 15 0 16 0;
#X connect 16 0 13 0;
#X connect 17 0 6 0;
#X connect 19 0 6 0;
#X connect 21 0 0 0;
#X connect 21 0 20 0;
